<svg width="53" height="55" viewBox="0 0 53 55" fill="none" xmlns="http://www.w3.org/2000/svg">
<path d="M42.1704 13.2215C40.8678 10.1792 38.7427 7.59418 36.0529 5.77992C33.363 3.96565 30.2238 3 27.0157 3C23.8076 3 20.6683 3.96565 17.9785 5.77992C15.2886 7.59418 13.1636 10.1792 11.861 13.2215C9.21594 14.5656 6.98504 16.6493 5.41953 19.2381C3.85401 21.8268 3.01606 24.8177 3.00005 27.8739C2.97934 36.6825 9.85278 44.0087 18.3204 44.245C20.4428 44.2939 22.5535 43.9069 24.5313 43.1063V50.2606C24.5313 50.9444 24.793 51.6001 25.259 52.0836C25.7249 52.5671 26.3568 52.8387 27.0157 52.8387C27.6746 52.8387 28.3065 52.5671 28.7724 52.0836C29.2383 51.6001 29.5 50.9444 29.5 50.2606V43.1063C31.3454 43.8633 33.3126 44.2497 35.2969 44.245H35.711C44.1786 44.0087 51.052 36.6825 51.0313 27.8739C51.0153 24.8177 50.1773 21.8268 48.6118 19.2381C47.0463 16.6493 44.8154 14.5656 42.1704 13.2215V13.2215ZM35.5868 39.0887C33.4332 39.1505 31.3119 38.5365 29.5 37.327V29.5067L38.0711 25.0594C38.6256 24.7325 39.0377 24.1969 39.2221 23.5634C39.4065 22.9299 39.3491 22.2471 39.0618 21.6563C38.7744 21.0655 38.2792 20.612 37.6786 20.3896C37.078 20.1673 36.418 20.1931 35.8352 20.4618L29.5 23.7489V19.3231C29.5 18.6393 29.2383 17.9836 28.7724 17.5001C28.3065 17.0166 27.6746 16.745 27.0157 16.745C26.3568 16.745 25.7249 17.0166 25.259 17.5001C24.793 17.9836 24.5313 18.6393 24.5313 19.3231V28.9051L18.1961 25.618C17.6134 25.3494 16.9534 25.3235 16.3527 25.5459C15.7521 25.7683 15.2569 26.2218 14.9696 26.8126C14.6823 27.4033 14.6249 28.0861 14.8093 28.7196C14.9937 29.3531 15.4058 29.8888 15.9602 30.2157L24.5313 34.6629V37.327C23.2879 38.1677 21.8904 38.7325 20.4266 38.986C18.9628 39.2394 17.4643 39.1761 16.0252 38.8C14.5861 38.4238 13.2375 37.743 12.064 36.8002C10.8906 35.8574 9.91765 34.673 9.20631 33.3214C8.49497 31.9698 8.0606 30.4802 7.93047 28.9461C7.80034 27.412 7.97726 25.8665 8.45012 24.4067C8.92298 22.947 9.68157 21.6044 10.6783 20.4634C11.6749 19.3224 12.8882 18.4075 14.2418 17.7762C15.182 17.323 15.9217 16.5169 16.3122 15.5204C17.1993 13.3349 18.6881 11.4695 20.592 10.1579C22.4959 8.8463 24.7304 8.14669 27.0157 8.14669C29.3009 8.14669 31.5354 8.8463 33.4393 10.1579C35.3433 11.4695 36.832 13.3349 37.7192 15.5204C38.1096 16.5169 38.8494 17.323 39.7895 17.7762C41.9944 18.8314 43.7909 20.6291 44.8872 22.8774C45.9834 25.1257 46.3151 27.6925 45.8283 30.1611C45.3415 32.6297 44.0649 34.855 42.2056 36.4757C40.3464 38.0964 38.0139 39.0172 35.5868 39.0887V39.0887Z" fill="#13AA52" fill-opacity="0.2"/>
</svg>
